<?xml version="1.0" standalone="no"?>
<!DOCTYPE svg PUBLIC "-//W3C//DTD SVG 20010904//EN"
 "http://www.w3.org/TR/2001/REC-SVG-20010904/DTD/svg10.dtd">
<svg version="1.0" xmlns="http://www.w3.org/2000/svg"
 width="626.000000pt" height="626.000000pt" viewBox="0 0 626.000000 626.000000"
 preserveAspectRatio="xMidYMid meet">

<g transform="translate(0.000000,626.000000) scale(0.100000,-0.100000)"
fill="#000000" stroke="none">
<path d="M3818 4759 c-38 -14 -47 -51 -32 -124 32 -149 8 -244 -73 -292 -25
-14 -111 -50 -191 -80 -240 -88 -356 -157 -433 -260 -82 -108 -112 -198 -113
-343 l-2 -105 -39 -3 c-87 -6 -264 -31 -330 -47 l-70 -16 -90 88 c-97 97 -191
158 -295 194 -90 31 -260 38 -365 14 -95 -21 -231 -88 -313 -156 -136 -110
-271 -326 -327 -524 -103 -359 -58 -815 111 -1124 119 -217 304 -384 501 -452
254 -87 542 -8 740 205 54 57 157 209 175 256 2 4 44 1 93 -7 128 -21 514 -21
660 0 61 9 130 19 155 22 l45 6 64 -97 c98 -147 253 -264 426 -321 70 -23 97
-26 210 -27 150 0 205 13 329 77 100 52 227 171 302 283 191 287 261 712 179
1079 -33 148 -64 233 -126 355 -129 251 -304 408 -539 482 -62 19 -96 23 -200
23 -111 -1 -134 -4 -199 -28 -112 -41 -215 -110 -320 -214 l-94 -93 -111 15
c-61 9 -171 19 -243 22 l-133 6 -6 33 c-3 19 -4 66 -2 106 5 95 34 155 112
234 70 70 127 99 366 190 197 74 259 118 310 218 34 67 35 72 34 180 -1 124
-16 179 -54 207 -32 24 -78 31 -112 18z m520 -1683 c36 -33 37 -36 40 -115 l4
-81 94 0 c90 0 94 -1 129 -31 30 -27 35 -37 35 -76 0 -63 -44 -107 -115 -117
-27 -3 -66 -9 -86 -12 l-36 -5 -6 -81 c-8 -93 -23 -123 -74 -145 -50 -20 -99
-9 -140 32 -32 32 -33 36 -33 114 l0 81 -90 0 c-85 0 -91 1 -123 30 -23 20
-36 42 -40 67 -14 85 55 143 171 143 l62 0 0 76 c0 75 1 77 39 115 34 34 44
39 85 39 39 0 52 -6 84 -34z m-2272 -1 c54 -35 80 -116 53 -168 -20 -38 -61
-76 -90 -82 -74 -16 -143 43 -154 130 -7 60 6 90 55 123 40 27 92 26 136 -3z
m203 -205 c19 -5 47 -22 62 -36 96 -92 -20 -252 -144 -201 -45 19 -69 56 -75
116 -4 43 -1 52 27 84 28 31 44 40 86 46 6 0 26 -3 44 -9z m-390 -26 c25 -18
51 -71 51 -105 0 -35 -32 -90 -64 -111 -24 -15 -44 -18 -85 -15 -47 3 -59 9
-88 40 -78 86 -12 207 112 207 31 0 60 -6 74 -16z m201 -200 c77 -31 109 -113
68 -174 -51 -76 -129 -100 -193 -60 -95 59 -76 209 30 239 43 13 50 13 95 -5z"/>
</g>
</svg>
